<?xml version="1.0" encoding="UTF-8" standalone="no"?>
<!-- Created with Inkscape (http://www.inkscape.org/) -->

<svg
   width="512"
   height="512"
   viewBox="0 0 135.46666 135.46667"
   version="1.1"
   id="svg1"
   inkscape:version="1.4.3 (fcd0343856, 2026-01-01)"
   sodipodi:docname="gear.svg"
   xmlns:inkscape="http://www.inkscape.org/namespaces/inkscape"
   xmlns:sodipodi="http://sodipodi.sourceforge.net/DTD/sodipodi-0.dtd"
   xmlns="http://www.w3.org/2000/svg"
   xmlns:svg="http://www.w3.org/2000/svg">
  <sodipodi:namedview
     id="namedview1"
     pagecolor="#ffffff"
     bordercolor="#000000"
     borderopacity="0.25"
     inkscape:showpageshadow="2"
     inkscape:pageopacity="0.0"
     inkscape:pagecheckerboard="0"
     inkscape:deskcolor="#d1d1d1"
     inkscape:document-units="mm"
     inkscape:zoom="0.87048922"
     inkscape:cx="305.00091"
     inkscape:cy="291.21555"
     inkscape:window-width="1920"
     inkscape:window-height="1011"
     inkscape:window-x="0"
     inkscape:window-y="32"
     inkscape:window-maximized="1"
     inkscape:current-layer="layer1" />
  <defs
     id="defs1" />
  <g
     inkscape:label="Layer 1"
     inkscape:groupmode="layer"
     id="layer1">
    <rect
       style="fill:#6e6e6e;stroke:none;stroke-width:8.51958;stroke-linecap:round;stroke-linejoin:round;fill-opacity:1"
       id="rect1"
       width="135.46666"
       height="135.46666"
       x="0"
       y="0" />
    <ellipse
       style="fill:#373737;fill-opacity:1;stroke:none;stroke-width:17.0835;stroke-linecap:round;stroke-linejoin:round"
       id="path1"
       cx="67.73333"
       cy="67.73333"
       rx="58.509964"
       ry="57.902069" />
    <path
       sodipodi:type="star"
       style="fill:#6e6e6e;fill-opacity:1;stroke:none;stroke-width:8.51958;stroke-linecap:round;stroke-linejoin:round"
       id="path2"
       inkscape:flatsided="false"
       sodipodi:sides="18"
       sodipodi:cx="-18.844767"
       sodipodi:cy="11.246071"
       sodipodi:r1="73.924339"
       sodipodi:r2="36.962173"
       sodipodi:arg1="0.65419149"
       sodipodi:arg2="0.82872442"
       inkscape:rounded="0"
       inkscape:randomized="0"
       d="M 39.817167,56.230351 6.1348801,38.489777 20.893889,73.58103 -4.6894731,45.390323 -2.8224566,83.413193 -17.221164,48.172568 -28.47133,84.540936 -29.948685,46.500933 -52.959097,76.828236 -41.336909,40.577041 -73.332173,61.205359 -50.01225,31.115401 l -37.121013,8.441254 32.204932,-20.299428 -37.769422,-4.76395 37.20555,-8.0604883 -33.86228,-17.3945517 37.71863,5.1506668 -25.870847,-27.9271138 33.682287,17.740575 -14.75901,-35.091254 25.583363,28.190708 -1.867017,-38.02287 14.398707,35.240625 11.2501663,-36.368368 1.4773552,38.040003 L 15.269564,-54.336094 3.6473761,-18.084899 35.642639,-38.713218 12.322716,-8.623259 49.44373,-17.064514 17.238798,3.2349152 55.00822,7.998865 17.80267,16.059353 51.66495,33.453904 13.946319,28.303238 Z"
       transform="matrix(1.0241424,0,0,0.94900264,87.033059,57.060782)" />
    <ellipse
       style="fill:#373737;fill-opacity:1;stroke:none;stroke-width:10.0283;stroke-linecap:round;stroke-linejoin:round"
       id="ellipse2"
       cx="67.277405"
       cy="68.115044"
       rx="34.346107"
       ry="33.989265" />
    <path
       sodipodi:type="star"
       style="fill:#6e6e6e;fill-opacity:1;stroke:none;stroke-width:8.51958;stroke-linecap:round;stroke-linejoin:round"
       id="path3"
       inkscape:flatsided="true"
       sodipodi:sides="3"
       sodipodi:cx="64.132996"
       sodipodi:cy="65.044846"
       sodipodi:r1="40.122269"
       sodipodi:r2="20.061134"
       sodipodi:arg1="1.0471976"
       sodipodi:arg2="2.0943951"
       inkscape:rounded="0"
       inkscape:randomized="0"
       d="M 84.194128,99.79175 24.010727,65.044844 84.194132,30.297943 Z"
       inkscape:transform-center-x="8.5828211"
       transform="matrix(0.85566657,0,0,0.85566657,14.664872,12.836502)" />
  </g>
</svg>
